<svg width="21" height="19" viewBox="0 0 21 19" fill="none" xmlns="http://www.w3.org/2000/svg">
              <path fill-rule="evenodd" clip-rule="evenodd" d="M4.32759 5.34749L4.93059 12.5195C4.97459 13.0715 5.42559 13.4855 5.97659 13.4855H5.98059H16.8916H16.8936C17.4146 13.4855 17.8596 13.0975 17.9336 12.5825L18.8836 6.02349C18.9056 5.86749 18.8666 5.71149 18.7716 5.58549C18.6776 5.45849 18.5396 5.37649 18.3836 5.35449C18.1746 5.36249 9.50159 5.35049 4.32759 5.34749ZM5.97459 14.9855C4.65759 14.9855 3.54259 13.9575 3.43559 12.6425L2.51959 1.74849L1.01259 1.48849C0.603593 1.41649 0.330593 1.02949 0.400593 0.620487C0.472593 0.211487 0.867593 -0.054513 1.26759 0.00948704L3.34759 0.369487C3.68259 0.428487 3.93759 0.706487 3.96659 1.04649L4.20159 3.84749C18.4776 3.85349 18.5236 3.86049 18.5926 3.86849C19.1496 3.94949 19.6396 4.24049 19.9736 4.68849C20.3076 5.13549 20.4476 5.68649 20.3676 6.23849L19.4186 12.7965C19.2396 14.0445 18.1556 14.9855 16.8956 14.9855H16.8906H5.98259H5.97459Z" fill="white"/>
              <path fill-rule="evenodd" clip-rule="evenodd" d="M15.2876 9.04395H12.5156C12.1006 9.04395 11.7656 8.70795 11.7656 8.29395C11.7656 7.87995 12.1006 7.54395 12.5156 7.54395H15.2876C15.7016 7.54395 16.0376 7.87995 16.0376 8.29395C16.0376 8.70795 15.7016 9.04395 15.2876 9.04395Z" fill="white"/>
              <path fill-rule="evenodd" clip-rule="evenodd" d="M5.54402 17.7021C5.84502 17.7021 6.08802 17.9451 6.08802 18.2461C6.08802 18.5471 5.84502 18.7911 5.54402 18.7911C5.24202 18.7911 4.99902 18.5471 4.99902 18.2461C4.99902 17.9451 5.24202 17.7021 5.54402 17.7021Z" fill="white"/>
            </svg>