<svg width="14" height="14" viewBox="0 0 14 14" fill="none" xmlns="http://www.w3.org/2000/svg">
<path fill-rule="evenodd" clip-rule="evenodd" d="M7 1C5.64256 1 5.51423 3.36435 4.70608 4.19972C3.89792 5.03508 1.38547 4.07995 1.03639 5.56268C0.68805 7.04618 2.94824 7.54953 3.22691 8.82229C3.50705 10.095 2.12615 11.8833 3.30611 12.7732C4.48607 13.6624 5.75623 11.6498 7 11.6498C8.24376 11.6498 9.51392 13.6624 10.6939 12.7732C11.8738 11.8833 10.4937 10.095 10.7731 8.82229C11.0525 7.54953 13.3119 7.04618 12.9636 5.56268C12.6153 4.07995 10.1021 5.03508 9.29465 4.19972C8.4865 3.36435 8.35743 1 7 1Z" stroke-width="1.5" stroke-linecap="round" stroke-linejoin="round"/>
</svg>
