<svg width="18" height="12" viewBox="0 0 18 12" fill="none" xmlns="http://www.w3.org/2000/svg">
              <path d="M0.691361 0C0.507742 0 0.331643 0.070238 0.201804 0.195262C0.0719659 0.320287 -0.000976562 0.489856 -0.000976562 0.666667C-0.000976562 0.843478 0.0719659 1.01305 0.201804 1.13807C0.331643 1.2631 0.507742 1.33333 0.691361 1.33333H17.3075C17.4911 1.33333 17.6672 1.2631 17.797 1.13807C17.9269 1.01305 17.9998 0.843478 17.9998 0.666667C17.9998 0.489856 17.9269 0.320287 17.797 0.195262C17.6672 0.070238 17.4911 0 17.3075 0H0.691361ZM-0.000976562 6C-0.000976562 5.82319 0.0719659 5.65362 0.201804 5.5286C0.331643 5.40357 0.507742 5.33333 0.691361 5.33333H17.3075C17.4911 5.33333 17.6672 5.40357 17.797 5.5286C17.9269 5.65362 17.9998 5.82319 17.9998 6C17.9998 6.17681 17.9269 6.34638 17.797 6.4714C17.6672 6.59643 17.4911 6.66667 17.3075 6.66667H0.691361C0.507742 6.66667 0.331643 6.59643 0.201804 6.4714C0.0719659 6.34638 -0.000976562 6.17681 -0.000976562 6ZM-0.000976562 11.3333C-0.000976562 11.1565 0.0719659 10.987 0.201804 10.8619C0.331643 10.7369 0.507742 10.6667 0.691361 10.6667H17.3075C17.4911 10.6667 17.6672 10.7369 17.797 10.8619C17.9269 10.987 17.9998 11.1565 17.9998 11.3333C17.9998 11.5101 17.9269 11.6797 17.797 11.8047C17.6672 11.9298 17.4911 12 17.3075 12H0.691361C0.507742 12 0.331643 11.9298 0.201804 11.8047C0.0719659 11.6797 -0.000976562 11.5101 -0.000976562 11.3333Z" fill="#112950"/>
              <path d="M0.691361 0C0.507742 0 0.331643 0.070238 0.201804 0.195262C0.0719659 0.320287 -0.000976562 0.489856 -0.000976562 0.666667C-0.000976562 0.843478 0.0719659 1.01305 0.201804 1.13807C0.331643 1.2631 0.507742 1.33333 0.691361 1.33333H17.3075C17.4911 1.33333 17.6672 1.2631 17.797 1.13807C17.9269 1.01305 17.9998 0.843478 17.9998 0.666667C17.9998 0.489856 17.9269 0.320287 17.797 0.195262C17.6672 0.070238 17.4911 0 17.3075 0H0.691361ZM-0.000976562 6C-0.000976562 5.82319 0.0719659 5.65362 0.201804 5.5286C0.331643 5.40357 0.507742 5.33333 0.691361 5.33333H17.3075C17.4911 5.33333 17.6672 5.40357 17.797 5.5286C17.9269 5.65362 17.9998 5.82319 17.9998 6C17.9998 6.17681 17.9269 6.34638 17.797 6.4714C17.6672 6.59643 17.4911 6.66667 17.3075 6.66667H0.691361C0.507742 6.66667 0.331643 6.59643 0.201804 6.4714C0.0719659 6.34638 -0.000976562 6.17681 -0.000976562 6ZM-0.000976562 11.3333C-0.000976562 11.1565 0.0719659 10.987 0.201804 10.8619C0.331643 10.7369 0.507742 10.6667 0.691361 10.6667H17.3075C17.4911 10.6667 17.6672 10.7369 17.797 10.8619C17.9269 10.987 17.9998 11.1565 17.9998 11.3333C17.9998 11.5101 17.9269 11.6797 17.797 11.8047C17.6672 11.9298 17.4911 12 17.3075 12H0.691361C0.507742 12 0.331643 11.9298 0.201804 11.8047C0.0719659 11.6797 -0.000976562 11.5101 -0.000976562 11.3333Z" stroke="#112950"/>
            </svg>