<svg width="16" height="12" viewBox="0 0 16 12" fill="none" xmlns="http://www.w3.org/2000/svg">
<path d="M13.3333 3.33366H11.3333V0.666992H1.99999C1.26666 0.666992 0.666656 1.26699 0.666656 2.00033V9.33366H1.99999C1.99999 10.4403 2.89332 11.3337 3.99999 11.3337C5.10666 11.3337 5.99999 10.4403 5.99999 9.33366H9.99999C9.99999 10.4403 10.8933 11.3337 12 11.3337C13.1067 11.3337 14 10.4403 14 9.33366H15.3333V6.00033L13.3333 3.33366ZM13 4.33366L14.3067 6.00033H11.3333V4.33366H13ZM3.99999 10.0003C3.63332 10.0003 3.33332 9.70033 3.33332 9.33366C3.33332 8.96699 3.63332 8.66699 3.99999 8.66699C4.36666 8.66699 4.66666 8.96699 4.66666 9.33366C4.66666 9.70033 4.36666 10.0003 3.99999 10.0003ZM5.47999 8.00033C5.11332 7.59366 4.59332 7.33366 3.99999 7.33366C3.40666 7.33366 2.88666 7.59366 2.51999 8.00033H1.99999V2.00033H9.99999V8.00033H5.47999ZM12 10.0003C11.6333 10.0003 11.3333 9.70033 11.3333 9.33366C11.3333 8.96699 11.6333 8.66699 12 8.66699C12.3667 8.66699 12.6667 8.96699 12.6667 9.33366C12.6667 9.70033 12.3667 10.0003 12 10.0003Z" fill="black" fill-opacity="0.85"/>
</svg>
