<svg width="25" height="25" viewBox="0 0 25 25" fill="none" xmlns="http://www.w3.org/2000/svg">
<path d="M16 12V14H18" stroke="#A0A0A0" stroke-width="2" stroke-miterlimit="10" stroke-linecap="square" stroke-linejoin="round"/>
<path d="M16 16L16 14L14 14" stroke="#A0A0A0" stroke-width="2" stroke-miterlimit="10" stroke-linecap="square" stroke-linejoin="round"/>
<path d="M18.5 4H13.5C12.67 4 12 3.32 12 2.5C12 1.68 12.67 1 13.5 1H18.5C19.33 1 20 1.68 20 2.5C20 3.32 19.33 4 18.5 4Z" stroke="#A0A0A0" stroke-width="1.5" stroke-linecap="round" stroke-linejoin="round"/>
<path fill-rule="evenodd" clip-rule="evenodd" d="M10.3857 15.3767L8.94386 12.5605C7.93711 10.5941 5.52689 9.81617 3.56049 10.8229C1.59408 11.8297 0.81613 14.2399 1.82288 16.2063L3.2647 19.0225L4.59988 18.3389L3.15807 15.5227C2.52885 14.2937 3.01507 12.7873 4.24407 12.1581C5.47307 11.5289 6.97946 12.0151 7.60868 13.2441L9.0505 16.0603L10.3857 15.3767Z" fill="#A0A0A0"/>
<mask id="path-5-inside-1" fill="white">
<path fill-rule="evenodd" clip-rule="evenodd" d="M2.73334 17.9863L4.17516 20.8025C5.18191 22.7689 7.59213 23.5469 9.55853 22.5401C11.5249 21.5334 12.3029 19.1231 11.2961 17.1567L9.85432 14.3406L2.73334 17.9863Z"/>
</mask>
<path d="M2.73334 17.9863L2.04976 16.6511L0.714572 17.3347L1.39815 18.6699L2.73334 17.9863ZM9.85432 14.3406L11.1895 13.657L10.5059 12.3218L9.17074 13.0054L9.85432 14.3406ZM5.51034 20.1189L4.06852 17.3027L1.39815 18.6699L2.83997 21.4861L5.51034 20.1189ZM8.87495 21.2049C7.64595 21.8342 6.13956 21.3479 5.51034 20.1189L2.83997 21.4861C4.22426 24.1899 7.53831 25.2596 10.2421 23.8753L8.87495 21.2049ZM9.96095 17.8403C10.5902 19.0693 10.104 20.5757 8.87495 21.2049L10.2421 23.8753C12.9459 22.491 14.0156 19.177 12.6313 16.4732L9.96095 17.8403ZM8.51913 15.0241L9.96095 17.8403L12.6313 16.4732L11.1895 13.657L8.51913 15.0241ZM9.17074 13.0054L2.04976 16.6511L3.41692 19.3215L10.5379 15.6757L9.17074 13.0054Z" fill="#A0A0A0" mask="url(#path-5-inside-1)"/>
<path d="M10.5138 20.6737L9.86809 20.2922C9.7206 20.5417 9.73016 20.854 9.89264 21.0941L10.5138 20.6737ZM10.612 17.4672L11.2796 17.1254H11.2796L10.612 17.4672ZM10 16.2718H9.25C9.25 16.3906 9.27825 16.5078 9.33241 16.6136L10 16.2718ZM10.59 8.41L11.1204 8.94033L11.1204 8.94033L10.59 8.41ZM12.71 6.28999L12.1797 5.75966L12.1797 5.75967L12.71 6.28999ZM13 4V3.25C12.5858 3.25 12.25 3.58579 12.25 4H13ZM19 4H19.75C19.75 3.58579 19.4142 3.25 19 3.25V4ZM19.29 6.28999L19.8203 5.75967L19.8203 5.75966L19.29 6.28999ZM21.41 8.41L20.8796 8.94033L20.8796 8.94033L21.41 8.41ZM22.75 13V9.83H21.25V13H22.75ZM22.75 14V13H21.25V14H22.75ZM22.75 19V14H21.25V19H22.75ZM19 22.75C21.0642 22.75 22.75 21.0642 22.75 19H21.25C21.25 20.2358 20.2358 21.25 19 21.25V22.75ZM13 22.75H19V21.25H13V22.75ZM9.89264 21.0941C10.5654 22.0883 11.707 22.75 13 22.75V21.25C12.23 21.25 11.5431 20.8565 11.1349 20.2534L9.89264 21.0941ZM9.94445 17.809C10.3613 18.6233 10.303 19.5562 9.86809 20.2922L11.1595 21.0553C11.845 19.8952 11.9406 18.4165 11.2796 17.1254L9.94445 17.809ZM9.33241 16.6136L9.94445 17.809L11.2796 17.1254L10.6676 15.93L9.33241 16.6136ZM9.25 12.98V16.2718H10.75V12.98H9.25ZM9.25 11.98V12.98H10.75V11.98H9.25ZM9.25 9.83V11.98H10.75V9.83H9.25ZM10.0597 7.87967C9.8062 8.13317 9.61059 8.46534 9.47846 8.78398C9.34645 9.10234 9.25 9.47428 9.25 9.83H10.75C10.75 9.72573 10.7836 9.55267 10.8641 9.35853C10.9445 9.16467 11.0439 9.01684 11.1204 8.94033L10.0597 7.87967ZM12.1797 5.75967L10.0597 7.87968L11.1204 8.94033L13.2404 6.82032L12.1797 5.75967ZM12.25 5.59C12.25 5.64886 12.2206 5.71874 12.1797 5.75966L13.2404 6.82032C13.5594 6.50125 13.75 6.05113 13.75 5.59H12.25ZM12.25 4V5.59H13.75V4H12.25ZM19 3.25H13V4.75H19V3.25ZM19.75 5.59V4H18.25V5.59H19.75ZM19.8203 5.75966C19.7794 5.71874 19.75 5.64887 19.75 5.59H18.25C18.25 6.05113 18.4406 6.50125 18.7596 6.82032L19.8203 5.75966ZM21.9403 7.87968L19.8203 5.75967L18.7596 6.82032L20.8796 8.94033L21.9403 7.87968ZM22.75 9.83C22.75 9.47428 22.6535 9.10234 22.5215 8.78398C22.3894 8.46534 22.1938 8.13317 21.9403 7.87967L20.8796 8.94033C20.9561 9.01684 21.0555 9.16467 21.1359 9.35853C21.2164 9.55267 21.25 9.72573 21.25 9.83H22.75Z" fill="#A0A0A0"/>
</svg>
