<svg width="16" height="14" viewBox="0 0 16 14" fill="none" xmlns="http://www.w3.org/2000/svg">
<path d="M13.0609 3.61588C13.0064 3.43604 12.8205 3.3108 12.6078 3.3108H9.91144C11.1019 1.97766 10.0208 0 8.06429 0C6.10751 0 5.02686 1.97785 6.21714 3.3108H3.33205C3.11661 3.3108 2.92896 3.43926 2.87708 3.62222L0.560461 11.7948C0.533773 11.8888 0.546054 11.9881 0.595054 12.075L1.55171 13.7714C1.63065 13.9114 1.79361 14 1.97205 14H14.1595C14.3416 14 14.5071 13.9078 14.5842 13.7635L15.5015 12.046C15.6376 11.7913 15.5989 12.1296 13.0609 3.61588ZM8.06429 0.820311C8.83969 0.820311 9.47054 1.3723 9.47054 2.05078C9.47054 2.72926 8.83969 3.28124 8.06429 3.28124C7.28889 3.28124 6.65804 2.72926 6.65804 2.05078C6.65804 1.3723 7.28885 0.820311 8.06429 0.820311ZM13.8612 13.1797H2.26352L1.51168 11.8466L3.69874 4.13111H12.2471L14.5802 11.8336L13.8612 13.1797Z" fill="black"/>
</svg>
