<svg width="44" height="44" viewBox="0 0 44 44" fill="none" xmlns="http://www.w3.org/2000/svg">
<path d="M22.0006 7.33398C21.5144 7.33398 21.0481 7.52714 20.7043 7.87096C20.3605 8.21477 20.1673 8.68109 20.1673 9.16732V20.1673H9.16732C8.68109 20.1673 8.21477 20.3605 7.87096 20.7043C7.52714 21.0481 7.33398 21.5144 7.33398 22.0006C7.33398 22.4869 7.52714 22.9532 7.87096 23.297C8.21477 23.6408 8.68109 23.834 9.16732 23.834H20.1673V34.834C20.1673 35.3202 20.3605 35.7865 20.7043 36.1303C21.0481 36.4742 21.5144 36.6673 22.0006 36.6673C22.4869 36.6673 22.9532 36.4742 23.297 36.1303C23.6408 35.7865 23.834 35.3202 23.834 34.834V23.834H34.834C35.3202 23.834 35.7865 23.6408 36.1303 23.297C36.4742 22.9532 36.6673 22.4869 36.6673 22.0006C36.6673 21.5144 36.4742 21.0481 36.1303 20.7043C35.7865 20.3605 35.3202 20.1673 34.834 20.1673H23.834V9.16732C23.834 8.68109 23.6408 8.21477 23.297 7.87096C22.9532 7.52714 22.4869 7.33398 22.0006 7.33398Z" fill="#8E9AAB"/>
</svg>
