<svg width="20" height="20" viewBox="0 0 20 20" fill="none" xmlns="http://www.w3.org/2000/svg">
<path fill-rule="evenodd" clip-rule="evenodd" d="M10.2083 7.08301C9.40417 7.08301 8.75 7.73717 8.75 8.54217C8.75 9.34634 9.40417 9.99967 10.2083 9.99967C11.0125 9.99967 11.6667 9.34634 11.6667 8.54217C11.6667 7.73717 11.0125 7.08301 10.2083 7.08301ZM10.2083 11.2497C8.715 11.2497 7.5 10.0355 7.5 8.54217C7.5 7.04801 8.715 5.83301 10.2083 5.83301C11.7017 5.83301 12.9167 7.04801 12.9167 8.54217C12.9167 10.0355 11.7017 11.2497 10.2083 11.2497Z" fill="white"/>
<mask id="mask0" style="mask-type:alpha" maskUnits="userSpaceOnUse" x="3" y="1" width="15" height="17">
<path fill-rule="evenodd" clip-rule="evenodd" d="M3.33301 1.6665H17.0826V17.9165H3.33301V1.6665Z" fill="white"/>
</mask>
<g mask="url(#mask0)">
<path fill-rule="evenodd" clip-rule="evenodd" d="M10.208 2.9165C7.10634 2.9165 4.58301 5.464 4.58301 8.594C4.58301 12.5765 9.26967 16.4565 10.208 16.6632C11.1463 16.4557 15.833 12.5757 15.833 8.594C15.833 5.464 13.3097 2.9165 10.208 2.9165ZM10.208 17.9165C8.71301 17.9165 3.33301 13.2898 3.33301 8.594C3.33301 4.774 6.41717 1.6665 10.208 1.6665C13.9988 1.6665 17.083 4.774 17.083 8.594C17.083 13.2898 11.703 17.9165 10.208 17.9165Z" fill="white"/>
</g>
</svg>
