<svg width="18" height="18" viewBox="0 0 18 18" fill="none" xmlns="http://www.w3.org/2000/svg">
                    <path d="M17.1299 16.1719L14.2655 13.3714L14.1983 13.2693C14.0735 13.145 13.9028 13.075 13.7246 13.075C13.5465 13.075 13.3758 13.145 13.2509 13.2693C10.8166 15.5026 7.06545 15.624 4.48533 13.5529C1.90521 11.4819 1.29672 7.86098 3.0634 5.09165C4.83008 2.32231 8.42372 1.26388 11.461 2.61828C14.4983 3.97269 16.0368 7.31966 15.0562 10.4395C14.9855 10.6649 15.0433 10.91 15.2076 11.0825C15.3719 11.255 15.6179 11.3286 15.8529 11.2757C16.0878 11.2228 16.2761 11.0514 16.3467 10.826C17.519 7.12371 15.7484 3.13947 12.1804 1.45072C8.6124 -0.238028 4.31769 0.875524 2.07454 4.07102C-0.168616 7.26651 0.312975 11.585 3.20777 14.2328C6.10256 16.8806 10.5418 17.0631 13.6538 14.6623L16.19 17.1419C16.452 17.3969 16.8755 17.3969 17.1374 17.1419C17.3991 16.8833 17.3991 16.467 17.1374 16.2084L17.1299 16.1719Z" fill="#112950"/>
                  </svg>