<svg width="11" height="14" viewBox="0 0 11 14" fill="none" xmlns="http://www.w3.org/2000/svg">
<path d="M5.99999 2.99967C5.26666 2.99967 4.66666 2.39967 4.66666 1.66634C4.66666 0.933008 5.26666 0.333008 5.99999 0.333008C6.73332 0.333008 7.33332 0.933008 7.33332 1.66634C7.33332 2.39967 6.73332 2.99967 5.99999 2.99967ZM9.33332 0.333008H10.6667C10.6667 2.13301 10.0467 3.27301 9.13332 3.99967C8.79999 4.26634 8.39999 4.46634 7.99999 4.59967V13.6663H6.66666V9.66634H5.33332V13.6663H3.99999V5.73301C3.79999 5.79967 3.66666 5.86634 3.59999 5.93301C3.24666 6.20634 2.66666 6.61967 2.66666 8.33301H1.33332C1.33332 6.95967 1.56666 5.81301 2.73999 4.80634C3.47332 4.20634 4.66666 3.66634 5.99999 3.66634C7.33332 3.66634 7.78666 3.35967 8.31999 2.95967C8.63999 2.69967 9.33332 2.17301 9.33332 0.333008ZM0.666656 9.66634H2.66666V13.6663H0.666656V9.66634Z" fill="black" fill-opacity="0.85"/>
</svg>
