<svg width="12" height="16" viewBox="0 0 12 16" fill="none" xmlns="http://www.w3.org/2000/svg">
<path d="M11.6667 2.66667C9.92667 3.13333 7.88667 3.33333 6 3.33333C4.11333 3.33333 2.07333 3.13333 0.333333 2.66667L0 4C1.24 4.33333 2.66667 4.55333 4 4.66667V12.6667H5.33333V8.66667H6.66667V12.6667H8V4.66667C9.33333 4.55333 10.76 4.33333 12 4L11.6667 2.66667ZM6 2.66667C6.73333 2.66667 7.33333 2.06667 7.33333 1.33333C7.33333 0.6 6.73333 0 6 0C5.26667 0 4.66667 0.6 4.66667 1.33333C4.66667 2.06667 5.26667 2.66667 6 2.66667ZM2.66667 16H4V14.6667H2.66667V16ZM5.33333 16H6.66667V14.6667H5.33333V16ZM8 16H9.33333V14.6667H8V16Z" fill="black" fill-opacity="0.85"/>
</svg>
