<svg width="14" height="16" viewBox="0 0 14 16" fill="none" xmlns="http://www.w3.org/2000/svg">
<path d="M12.9945 9.38006L11.7909 6.40306C11.4784 5.63028 10.738 5.13094 9.90439 5.13094H9.19124C9.71317 4.58572 10.0343 3.84678 10.0343 3.03422C10.0343 1.36116 8.67314 0 7.00005 0C5.32695 0 3.9658 1.36116 3.9658 3.03425C3.9658 3.84681 4.28692 4.58575 4.80883 5.13097H4.09567C3.26211 5.13097 2.52164 5.63031 2.20917 6.40312L1.00555 9.38006C0.70411 10.1257 0.914579 10.975 1.5293 11.4936L3.18252 12.8881C3.54692 14.6619 5.12005 16 7.00005 16C8.88014 16 10.4535 14.6618 10.8178 12.8879L12.4708 11.4935C13.0855 10.975 13.296 10.1257 12.9945 9.38006ZM4.9033 3.03425C4.9033 1.87809 5.84389 0.9375 7.00005 0.9375C8.1562 0.9375 9.0968 1.87809 9.0968 3.03425C9.0968 4.19037 8.1562 5.13097 7.00005 5.13097C5.84389 5.13097 4.9033 4.19037 4.9033 3.03425ZM4.24717 13.1886L4.67674 13.259L4.90074 12.5714H5.61811C5.7638 12.9996 6.10305 13.3389 6.5313 13.4845V15.0247C5.48833 14.8579 4.6257 14.1448 4.24717 13.1886ZM5.00427 9.91881C5.53092 9.43703 6.23174 9.14272 7.00005 9.14272C7.7683 9.14272 8.46883 9.43722 8.99545 9.91891L8.30008 10.1179L8.79395 11.6339H8.38198C8.18623 11.0584 7.64089 10.643 7.00005 10.643C6.3592 10.643 5.81386 11.0584 5.61811 11.6339H5.20614L5.70002 10.1179L5.00427 9.91881ZM7.00005 12.6247C6.71217 12.6247 6.47795 12.3905 6.47795 12.1026C6.47795 11.8147 6.71217 11.5805 7.00005 11.5805C7.28792 11.5805 7.52214 11.8147 7.52214 12.1026C7.52214 12.3905 7.28792 12.6247 7.00005 12.6247ZM7.4688 15.0247V13.4845C7.89705 13.3389 8.2363 12.9996 8.38198 12.5714H9.09936L9.32336 13.259L9.75258 13.1887C9.37402 14.1448 8.5117 14.8579 7.4688 15.0247ZM11.8663 10.7769L10.2253 12.1612L9.96555 12.2037L9.49255 10.7518L9.88992 10.6381L10.4157 10.6527L10.4416 9.71553L10.0703 9.70525C9.35639 8.79288 8.24567 8.20522 7.00002 8.20522C5.75442 8.20522 4.64392 8.79294 3.92999 9.70522L3.55842 9.71553L3.58436 10.6527L4.11011 10.6381L4.50749 10.7518L4.03449 12.2037L3.77477 12.1612L2.13374 10.7769C1.82967 10.5204 1.72552 10.1003 1.87464 9.73144L3.07827 6.7545C3.2468 6.33772 3.64611 6.06844 4.09564 6.06844H9.90436C10.3539 6.06844 10.7532 6.33772 10.9217 6.75447L12.1254 9.73147C12.2745 10.1003 12.1704 10.5204 11.8663 10.7769Z" fill="black"/>
</svg>
